<?xml version="1.0" encoding="UTF-8" standalone="no"?>
<!-- Created with Inkscape (http://www.inkscape.org/) -->

<svg
   width="100mm"
   height="200mm"
   viewBox="0 0 100 200"
   version="1.1"
   id="svg1"
   inkscape:version="1.4 (e7c3feb1, 2024-10-09)"
   sodipodi:docname="scroll_bar.svg"
   xmlns:inkscape="http://www.inkscape.org/namespaces/inkscape"
   xmlns:sodipodi="http://sodipodi.sourceforge.net/DTD/sodipodi-0.dtd"
   xmlns="http://www.w3.org/2000/svg"
   xmlns:svg="http://www.w3.org/2000/svg">
  <sodipodi:namedview
     id="namedview1"
     pagecolor="#aeaeae"
     bordercolor="#000000"
     borderopacity="0.25"
     inkscape:showpageshadow="2"
     inkscape:pageopacity="0.0"
     inkscape:pagecheckerboard="0"
     inkscape:deskcolor="#d1d1d1"
     inkscape:document-units="mm"
     showguides="true"
     inkscape:zoom="0.61788592"
     inkscape:cx="123.00005"
     inkscape:cy="395.70411"
     inkscape:window-width="1440"
     inkscape:window-height="768"
     inkscape:window-x="0"
     inkscape:window-y="25"
     inkscape:window-maximized="0"
     inkscape:current-layer="layer2" />
  <defs
     id="defs1">
    <inkscape:path-effect
       effect="fillet_chamfer"
       id="path-effect3"
       is_visible="true"
       lpeversion="1"
       nodesatellites_param="F,0,0,1,0,6,0,1 @ F,0,0,1,0,6,0,1 @ F,0,0,1,0,6,0,1 @ F,0,0,1,0,6,0,1"
       radius="0"
       unit="px"
       method="auto"
       mode="F"
       chamfer_steps="1"
       flexible="false"
       use_knot_distance="true"
       apply_no_radius="true"
       apply_with_radius="true"
       only_selected="false"
       hide_knots="false" />
    <inkscape:path-effect
       effect="fillet_chamfer"
       id="path-effect2"
       is_visible="true"
       lpeversion="1"
       nodesatellites_param="F,0,0,1,0,0,0,1 @ F,0,0,1,0,0,0,1 @ F,0,0,1,0,0,0,1 @ F,0,0,1,0,0,0,1"
       radius="0"
       unit="px"
       method="auto"
       mode="F"
       chamfer_steps="1"
       flexible="false"
       use_knot_distance="true"
       apply_no_radius="true"
       apply_with_radius="true"
       only_selected="false"
       hide_knots="false" />
    <inkscape:path-effect
       effect="fillet_chamfer"
       id="path-effect1"
       is_visible="true"
       lpeversion="1"
       nodesatellites_param="F,0,0,1,0,0,0,1 @ F,0,0,1,0,0,0,1 @ F,0,0,1,0,0,0,1 @ F,0,0,1,0,0,0,1"
       radius="0"
       unit="px"
       method="auto"
       mode="F"
       chamfer_steps="1"
       flexible="false"
       use_knot_distance="true"
       apply_no_radius="true"
       apply_with_radius="true"
       only_selected="false"
       hide_knots="false" />
    <inkscape:path-effect
       effect="fillet_chamfer"
       id="path-effect3-8"
       is_visible="true"
       lpeversion="1"
       nodesatellites_param="F,0,0,1,0,6,0,1 @ F,0,0,1,0,6,0,1 @ F,0,0,1,0,6,0,1 @ F,0,0,1,0,6,0,1"
       radius="0"
       unit="px"
       method="auto"
       mode="F"
       chamfer_steps="1"
       flexible="false"
       use_knot_distance="true"
       apply_no_radius="true"
       apply_with_radius="true"
       only_selected="false"
       hide_knots="false" />
    <inkscape:path-effect
       effect="fillet_chamfer"
       id="path-effect3-1"
       is_visible="true"
       lpeversion="1"
       nodesatellites_param="F,0,0,1,0,6,0,1 @ F,0,0,1,0,6,0,1 @ F,0,0,1,0,6,0,1 @ F,0,0,1,0,6,0,1"
       radius="0"
       unit="px"
       method="auto"
       mode="F"
       chamfer_steps="1"
       flexible="false"
       use_knot_distance="true"
       apply_no_radius="true"
       apply_with_radius="true"
       only_selected="false"
       hide_knots="false" />
    <inkscape:path-effect
       effect="fillet_chamfer"
       id="path-effect3-8-8"
       is_visible="true"
       lpeversion="1"
       nodesatellites_param="F,0,0,1,0,6,0,1 @ F,0,0,1,0,6,0,1 @ F,0,0,1,0,6,0,1 @ F,0,0,1,0,6,0,1"
       radius="0"
       unit="px"
       method="auto"
       mode="F"
       chamfer_steps="1"
       flexible="false"
       use_knot_distance="true"
       apply_no_radius="true"
       apply_with_radius="true"
       only_selected="false"
       hide_knots="false" />
    <inkscape:path-effect
       effect="fillet_chamfer"
       id="path-effect3-1-5"
       is_visible="true"
       lpeversion="1"
       nodesatellites_param="F,0,0,1,0,6,0,1 @ F,0,0,1,0,6,0,1 @ F,0,0,1,0,6,0,1 @ F,0,0,1,0,6,0,1"
       radius="0"
       unit="px"
       method="auto"
       mode="F"
       chamfer_steps="1"
       flexible="false"
       use_knot_distance="true"
       apply_no_radius="true"
       apply_with_radius="true"
       only_selected="false"
       hide_knots="false" />
  </defs>
  <g
     inkscape:label="background"
     inkscape:groupmode="layer"
     id="layer1" />
  <g
     inkscape:groupmode="layer"
     id="layer2"
     inkscape:label="Bars">
    <path
       style="fill:#1d1d1d;fill-opacity:1;stroke:#000000;stroke-width:0;stroke-linecap:square"
       id="rect1"
       width="83.92865"
       height="22.694992"
       x="8.1359406"
       y="11.561601"
       sodipodi:type="rect"
       inkscape:path-effect="#path-effect3"
       d="M 14.135941,11.561601 H 86.06459 a 6,6 45 0 1 6,6 v 10.694992 a 6,6 135 0 1 -6,6 H 14.135941 a 6,6 45 0 1 -6.0000004,-6 V 17.561601 a 6,6 135 0 1 6.0000004,-6 z"
       inkscape:label="bar"
       transform="translate(-0.13594055)" />
    <path
       style="fill:#1d1d1d;fill-opacity:1;stroke:#000000;stroke-width:0;stroke-linecap:square"
       id="rect1-3"
       width="83.92865"
       height="22.694992"
       x="8.1359406"
       y="11.561601"
       sodipodi:type="rect"
       inkscape:path-effect="#path-effect3-8"
       d="M 14.135941,11.561601 H 86.06459 a 6,6 45 0 1 6,6 v 10.694992 a 6,6 135 0 1 -6,6 H 14.135941 a 6,6 45 0 1 -6.0000004,-6 V 17.561601 a 6,6 135 0 1 6.0000004,-6 z"
       inkscape:label="bar"
       transform="translate(-0.13594055,39.123502)" />
    <path
       style="fill:#1d1d1d;fill-opacity:1;stroke:#000000;stroke-width:0;stroke-linecap:square"
       id="rect1-8"
       width="83.92865"
       height="22.694992"
       x="8.1359406"
       y="11.561601"
       sodipodi:type="rect"
       inkscape:path-effect="#path-effect3-1"
       d="M 14.135941,11.561601 H 86.06459 a 6,6 45 0 1 6,6 v 10.694992 a 6,6 135 0 1 -6,6 H 14.135941 a 6,6 45 0 1 -6.0000004,-6 V 17.561601 a 6,6 135 0 1 6.0000004,-6 z"
       inkscape:label="bar"
       transform="translate(10.649476,100.09257)" />
    <path
       style="fill:#1d1d1d;fill-opacity:1;stroke:#000000;stroke-width:0;stroke-linecap:square"
       id="rect1-8-2"
       width="83.92865"
       height="22.694992"
       x="8.1359406"
       y="11.561601"
       sodipodi:type="rect"
       inkscape:path-effect="#path-effect3-1-5"
       d="M 14.135941,11.561601 H 86.06459 a 6,6 45 0 1 6,6 v 10.694992 a 6,6 135 0 1 -6,6 H 14.135941 a 6,6 45 0 1 -6.0000004,-6 V 17.561601 a 6,6 135 0 1 6.0000004,-6 z"
       inkscape:label="bar"
       transform="translate(-0.53613555,154.92747)" />
    <path
       style="fill:#1d1d1d;fill-opacity:1;stroke:#000000;stroke-width:0;stroke-linecap:square"
       id="rect1-3-7"
       width="83.92865"
       height="22.694992"
       x="8.1359406"
       y="11.561601"
       sodipodi:type="rect"
       inkscape:path-effect="#path-effect3-8-8"
       d="M 14.135941,11.561601 H 86.06459 a 6,6 45 0 1 6,6 v 10.694992 a 6,6 135 0 1 -6,6 H 14.135941 a 6,6 45 0 1 -6.0000004,-6 V 17.561601 a 6,6 135 0 1 6.0000004,-6 z"
       inkscape:label="bar"
       transform="translate(-0.91212425,118.23391)" />
  </g>
</svg>
